<?xml version="1.0" encoding="UTF-8"?>
<svg width="50px" height="53px" viewBox="0 0 50 53" version="1.1" xmlns="http://www.w3.org/2000/svg" xmlns:xlink="http://www.w3.org/1999/xlink">
    <!-- Generator: Sketch 49.3 (51167) - http://www.bohemiancoding.com/sketch -->
    <title>Combined Shape</title>
    <desc>Created with Sketch.</desc>
    <defs></defs>
    <g id="Page-1" stroke="none" stroke-width="1" fill="none" fill-rule="evenodd">
        <g id="Desktop-HD-Copy" transform="translate(-196.000000, -473.000000)" fill="#FF586B">
            <g id="1_Home" transform="translate(178.000000, -176.000000)">
                <g id="CTA" transform="translate(18.000000, 649.000000)">
                    <g id="Group-7">
                        <path d="M25.5,53 C11.9044846,53 -1.97824506,42.1793948 1,28.5 C3.97824506,14.8206052 14.113168,-8.3998219 25.5,4 C36.886832,16.3998219 50,19.3899525 50,28.5 C50,37.6100475 39.0955154,53 25.5,53 Z M26.0733494,36.2956999 L31.2625456,31.8319539 C31.5791515,31.5596096 31.5791515,31.1179219 31.2625456,30.8455776 C30.9458749,30.5731775 30.4325337,30.5731775 30.115863,30.8455776 L26.31082,34.1186752 L26.31082,22.1974603 C26.31082,21.8122948 25.9477709,21.5 25.5000081,21.5 C25.0523102,21.5 24.6891962,21.8122948 24.6891962,22.1974603 L24.6891962,34.1186752 L20.8841532,30.8456892 C20.5674825,30.5732891 20.0541413,30.5732891 19.7374706,30.8456892 C19.579265,30.9818335 19.5,31.1603833 19.5,31.3388774 C19.5,31.5173714 19.579265,31.6958655 19.7374706,31.8320655 L24.9266668,36.2956999 C25.2433375,36.5681 25.7566787,36.5681 26.0733494,36.2956999 Z" id="Combined-Shape"></path>
                    </g>
                </g>
            </g>
        </g>
    </g>
</svg>