<?xml version="1.0" encoding="UTF-8"?>
<svg width="361px" height="90px" viewBox="0 0 361 90" version="1.1" xmlns="http://www.w3.org/2000/svg" xmlns:xlink="http://www.w3.org/1999/xlink">
    <!-- Generator: Sketch 49.3 (51167) - http://www.bohemiancoding.com/sketch -->
    <title>Group 2</title>
    <desc>Created with Sketch.</desc>
    <defs></defs>
    <g id="Page-1" stroke="none" stroke-width="1" fill="none" fill-rule="evenodd">
        <g id="Tablet-Copy-4" transform="translate(-571.000000, -335.000000)">
            <g id="Group-2" transform="translate(571.000000, 335.000000)">
                <g id="Group-Copy-3" fill="#FF586B">
                    <path d="M37,33 C37,22 37,11 37,0 C16.5654643,0 0,16.5654643 0,37 C11,37 22,37 33,37 L33,37 C35.209139,37 37,35.209139 37,33 Z" id="Oval"></path>
                    <path d="M0,43 L37,43 L37,49 C37,51.209139 35.209139,53 33,53 L0,53 L0,43 Z" id="Rectangle"></path>
                    <path d="M0,59 L10,59 L10,86 C10,88.209139 8.209139,90 6,90 L0,90 L0,59 Z" id="Rectangle-Copy"></path>
                </g>
                <path d="M96,26.2961458 L126.88552,26.2961458 L126.88552,32.9298126 L103.291591,32.9298126 L103.291591,44.2425837 L124.217865,44.2425837 L124.217865,50.8762504 L103.291591,50.8762504 L103.291591,67.7565632 L96,67.7565632 L96,26.2961458 Z M172.2311,46.848667 C174.839488,46.848667 176.91431,46.226767 178.455629,44.9829483 C179.996949,43.7391295 180.767597,42.0511151 180.767597,39.9188544 L180.767597,39.8003961 C180.767597,37.5496765 180.016709,35.8419192 178.514911,34.6770731 C177.013112,33.5122269 174.898769,32.9298126 172.171819,32.9298126 L161.560479,32.9298126 L161.560479,46.848667 L172.2311,46.848667 Z M154.268888,26.2961458 L172.764632,26.2961458 C175.373019,26.2961458 177.684963,26.6613887 179.700535,27.3918854 C181.716107,28.1223822 183.395725,29.1391394 184.73944,30.4421876 C185.846028,31.5872905 186.695717,32.9100621 187.288533,34.4105418 C187.881348,35.9110216 188.177751,37.5694217 188.177751,39.3857919 L188.177751,39.5042502 C188.177751,41.2021615 187.930748,42.7322331 187.436736,44.0945107 C186.942723,45.4567884 186.260996,46.6611028 185.391533,47.70749 C184.522071,48.7538772 183.48466,49.6423058 182.279269,50.3728025 C181.073878,51.1032992 179.740063,51.6659707 178.277786,52.0608338 L189.481938,67.7565632 L180.88616,67.7565632 L170.689788,53.3046463 L161.560479,53.3046463 L161.560479,67.7565632 L154.268888,67.7565632 L154.268888,26.2961458 Z M216.924587,26.2961458 L224.216178,26.2961458 L224.216178,67.7565632 L216.924587,67.7565632 L216.924587,26.2961458 Z M270.154571,61.1228965 C272.328227,61.1228965 274.304248,60.7773964 276.082694,60.086386 C277.861139,59.3953756 279.372796,58.4279755 280.617708,57.1841568 C281.86262,55.9403381 282.83087,54.4596237 283.522488,52.7419692 C284.214106,51.0243148 284.559909,49.1586146 284.559909,47.1448129 L284.559909,47.0263545 C284.559909,45.0125528 284.214106,43.1369812 283.522488,41.3995836 C282.83087,39.662186 281.86262,38.1716002 280.617708,36.9277814 C279.372796,35.6839627 277.861139,34.7066912 276.082694,33.9959376 C274.304248,33.2851841 272.328227,32.9298126 270.154571,32.9298126 L261.973761,32.9298126 L261.973761,61.1228965 L270.154571,61.1228965 Z M254.68217,26.2961458 L270.154571,26.2961458 C273.395294,26.2961458 276.369206,26.8193316 279.076396,27.8657188 C281.783585,28.912106 284.11529,30.3632061 286.071581,32.2190626 C288.027871,34.0749191 289.539527,36.256505 290.606595,38.7638856 C291.673662,41.2712663 292.207188,43.9859093 292.207188,46.9078962 L292.207188,47.0263545 C292.207188,49.9483414 291.673662,52.6728559 290.606595,55.1999797 C289.539527,57.7271035 288.027871,59.9185608 286.071581,61.7744173 C284.11529,63.6302738 281.783585,65.0912454 279.076396,66.1573757 C276.369206,67.2235061 273.395294,67.7565632 270.154571,67.7565632 L254.68217,67.7565632 L254.68217,26.2961458 Z M345.555734,51.2908546 L338.382705,34.7066877 L331.268958,51.2908546 L345.555734,51.2908546 Z M335.122238,26 L341.880298,26 L360.138916,67.7565632 L352.432356,67.7565632 L348.223389,57.7468339 L328.601302,57.7468339 L324.333054,67.7565632 L316.863619,67.7565632 L335.122238,26 Z" id="FRIDA-Copy" fill="#0A0D55"></path>
            </g>
        </g>
    </g>
</svg>