<svg width="89" height="95" viewBox="0 0 89 95" xmlns="http://www.w3.org/2000/svg">
  <title>
    001-planet
  </title>
  <g fill="none" fill-rule="evenodd">
    <path d="M9.091 31.602a1.587 1.587 0 0 0 1.969-1.078C15.766 14.416 30.823 3.167 47.678 3.167c2.698 0 5.38.28 7.992.836-.057 2.278.93 3.841 1.565 4.845.176.278.416.658.444.71 0 5.679-1.164 6.603-1.152 6.606-2.575 0-6.801 2.293-8.39 5.249-.976 1.813-.896 3.732.22 5.404.766 1.145 1.426 2.418 2.064 3.65 1.35 2.606 2.85 5.497 5.202 5.497.498 0 1.035-.13 1.616-.42 1.853-.923 3.181-3.548 4.465-6.085.565-1.117 1.396-2.758 1.889-3.279 1.613.219 2.4 1.672 3.467 3.975.785 1.694 1.597 3.443 3.192 4.238 2.685 1.338 11.514-.063 16.393-2.128a1.582 1.582 0 0 0 .912-1.87C84.222 18.108 75.164 7.888 63.324 3.057a1.59 1.59 0 0 0-2.073.865 1.582 1.582 0 0 0 .87 2.064c10.487 4.282 18.61 13.14 21.971 23.87-4.944 1.738-11.29 2.26-12.42 1.704-.597-.297-1.198-1.59-1.727-2.733-1.107-2.39-2.625-5.665-6.498-5.836-2.002-.12-3.13 2.176-4.58 5.043-.852 1.682-2.138 4.223-3.162 4.725-.59-.138-1.76-2.397-2.46-3.746-.647-1.248-1.38-2.662-2.244-3.952-.468-.7-.487-1.365-.063-2.153 1.091-2.03 4.366-3.577 5.59-3.577 2.872 0 4.329-3.287 4.329-9.773 0-.921-.475-1.672-.933-2.398-.673-1.063-1.368-2.163-.956-4.041a1.584 1.584 0 0 0-1.163-1.873A41.613 41.613 0 0 0 47.678 0C29.418 0 13.106 12.189 8.009 29.64c-.246.84.24 1.718 1.082 1.962zM66.738 41.99c-.46.13-1.087.31-1.254.323-2.196 0-3.588 1.694-4.603 2.93-.388.473-1.088 1.32-1.535 1.332a4.991 4.991 0 0 0-2.243-.538c-1.873 0-3.496 1.11-3.858 2.643-.256 1.076.12 2.55 1.94 3.458 2.58 1.285 5.248 2.614 6.435 3.797.816.813 2.229 1.28 3.877 1.28 2.502 0 5.83-1.21 6.971-4.628.451-1.345 1.53-2.375 2.574-3.369 1.21-1.157 2.357-2.248 2.372-3.814.012-.925-.4-1.808-1.22-2.627-1.117-1.112-2.637-1.677-4.522-1.677-1.808 0-3.616.515-4.934.89z" fill="#0A0D55" fill-rule="nonzero"/>
    <path d="M74.237 45.36c-.075.313-.866 1.068-1.392 1.57-1.2 1.143-2.692 2.566-3.39 4.656-.785 2.344-3.436 2.463-3.958 2.463-.927 0-1.508-.244-1.63-.352-1.553-1.548-4.325-2.93-7.262-4.392l-.017-.008c.298-.122.851-.13 1.338.11.513.257 1.04.387 1.565.387 1.758 0 2.869-1.352 3.848-2.544.716-.87 1.455-1.77 2.145-1.77.564 0 1.22-.187 2.126-.445 1.202-.342 2.7-.768 4.062-.768 1.025 0 1.769.245 2.274.749.22.221.281.345.29.345z" fill="#FF586B"/>
    <path d="M88.594 35.47a1.595 1.595 0 0 0-1.791-1.352c-.87.12-1.478.92-1.357 1.786.242 1.74.364 3.512.364 5.263 0 20.802-16.858 37.751-37.675 37.997-5.65-3.596-10.945-8-8.586-13.485 4.236-9.854.294-13.525-1.39-15.096l-.316-.3c-.482-.477-1.025-.804-1.503-1.09-1.163-.695-1.476-.882-.852-2.749.413-1.24.963-1.817 1.597-2.487 1.47-1.549 2.593-3.09 2.593-7.567 0-2.606-1.327-4.685-3.64-5.703-2.624-1.156-6.127-.748-7.98.928-1.156 1.048-1.545 2.475-1.065 3.91 1.132 3.381-1.456 8.267-6.292 11.882-1.28.956-1.662.518-1.891.256-1.419-1.629-1.31-6.263-.145-7.422.78-.778 1.012-1.77.62-2.656-1.287-2.908-9.497-2.683-11.125-2.607a1.59 1.59 0 0 0-1.505 1.388 37.3 37.3 0 0 0-.287 4.801c0 18.984 12.9 35.418 31.368 39.965a1.589 1.589 0 0 0 1.923-1.157 1.581 1.581 0 0 0-1.162-1.916C21.451 73.86 9.546 58.689 9.546 41.167c0-1.1.038-2.07.122-3.06 2.688-.002 4.971.308 6.136.663-1.822 2.835-1.622 8.41.605 10.969 1.597 1.834 3.914 1.91 6.198.201 6.105-4.562 9.01-10.615 7.4-15.415-.051-.157-.102-.304.19-.569.836-.756 2.964-1.076 4.556-.373 1.175.517 1.747 1.436 1.747 2.807 0 3.574-.723 4.337-1.724 5.391-.742.784-1.666 1.758-2.303 3.663-1.429 4.276.863 5.647 2.232 6.466.354.21.688.41.891.613.116.115.248.239.393.373 1.398 1.302 3.997 3.726.64 11.533-3.807 8.853 6.01 15.025 10.2 17.66.255.16.549.245.849.245 22.778 0 41.31-18.468 41.31-41.167a41.53 41.53 0 0 0-.394-5.697z" fill="#0A0D55" fill-rule="nonzero"/>
    <path d="M74.229 76.743C66.513 82.47 57.33 85.5 47.678 85.5 23.148 85.5 3.19 65.613 3.19 41.167c0-.874-.712-1.584-1.589-1.584s-1.589.71-1.589 1.584c0 25.66 20.528 46.62 46.077 47.46v4.79c0 .874.712 1.583 1.589 1.583s1.589-.71 1.589-1.583v-4.814c9.757-.315 19.018-3.497 26.86-9.32a1.58 1.58 0 0 0 .325-2.217 1.593 1.593 0 0 0-2.223-.323z" fill="#0A0D55" fill-rule="nonzero"/>
    <path d="M48.893 64.152c-1.983 0-4.309 2.274-5.157 4.314-.663 1.595-.466 3.082.542 4.085.948.946 2.356 1.489 3.862 1.489 1.507 0 2.914-.543 3.864-1.489 1.055-1.05 1.313-2.596.725-4.349-.396-1.184-1.18-2.437-2.096-3.35a2.448 2.448 0 0 0-1.74-.7z" fill="#0A0D55"/>
    <path d="M49.758 70.311c-.706.703-2.54.684-3.226.018-.022-.069-.02-.464.4-1.158.549-.9 1.322-1.537 1.742-1.764.451.534.842 1.202 1.04 1.796.177.524.193.96.044 1.108z" fill="#FF586B" fill-rule="nonzero"/>
  </g>
</svg>
